<svg width="200" height="200" viewBox="0 0 200 200" xmlns="http://www.w3.org/2000/svg">
  <!-- top-left -->
  <polyline points="0,40 0,0 40,0" fill="none" stroke="#5ec4d5" stroke-width="2" stroke-linecap="square"/>
  <polyline points="6,40 6,6 40,6" fill="none" stroke="#a277ff" stroke-width="0.8" stroke-linecap="square" opacity="0.5"/>
  <line x1="0" y1="0" x2="6" y2="6" stroke="#a277ff" stroke-width="0.8" opacity="0.5"/>
  <rect x="0" y="0" width="4" height="4" fill="#5ec4d5"/>
  <!-- top-right -->
  <polyline points="160,0 200,0 200,40" fill="none" stroke="#5ec4d5" stroke-width="2" stroke-linecap="square"/>
  <polyline points="160,6 194,6 194,40" fill="none" stroke="#a277ff" stroke-width="0.8" stroke-linecap="square" opacity="0.5"/>
  <line x1="200" y1="0" x2="194" y2="6" stroke="#a277ff" stroke-width="0.8" opacity="0.5"/>
  <rect x="196" y="0" width="4" height="4" fill="#5ec4d5"/>
  <!-- bottom-left -->
  <polyline points="0,160 0,200 40,200" fill="none" stroke="#5ec4d5" stroke-width="2" stroke-linecap="square"/>
  <polyline points="6,160 6,194 40,194" fill="none" stroke="#a277ff" stroke-width="0.8" stroke-linecap="square" opacity="0.5"/>
  <line x1="0" y1="200" x2="6" y2="194" stroke="#a277ff" stroke-width="0.8" opacity="0.5"/>
  <rect x="0" y="196" width="4" height="4" fill="#5ec4d5"/>
  <!-- bottom-right -->
  <polyline points="160,200 200,200 200,160" fill="none" stroke="#5ec4d5" stroke-width="2" stroke-linecap="square"/>
  <polyline points="160,194 194,194 194,160" fill="none" stroke="#a277ff" stroke-width="0.8" stroke-linecap="square" opacity="0.5"/>
  <line x1="200" y1="200" x2="194" y2="194" stroke="#a277ff" stroke-width="0.8" opacity="0.5"/>
  <rect x="196" y="196" width="4" height="4" fill="#5ec4d5"/>
</svg>
